HIERARCHY
ROOT Hips
{
	OFFSET	0.00	0.00	0.00
	CHANNELS 6 Xposition Yposition Zposition Zrotation Xrotation Yrotation
	JOINT Spine
	{
		OFFSET	 0.00	0.01	 0.00
		CHANNELS 3 Zrotation Xrotation Yrotation
		JOINT Spine1
		{
			OFFSET	 0.00	 2.45913012437421	 0.00
			CHANNELS 3 Zrotation Xrotation Yrotation
            JOINT Neck
            {
                OFFSET	 0.00	 2.48462964506057	 0.00
                CHANNELS 3 Zrotation Xrotation Yrotation
                JOINT Head
                {
                    OFFSET	 0.00	 0.927524780924562	 0.00
                    CHANNELS 3 Zrotation Xrotation Yrotation
                    End Site 
                    {
                        OFFSET	 0.00	 1.14999962169752	 0.00
                    }
                }
            }
			JOINT LeftShoulder
			{
				OFFSET	 0.00	 2.48462964506057	 0.00
				CHANNELS 3 Zrotation Xrotation Yrotation
				JOINT LeftUpArm
				{
					OFFSET	 0.00	 1.24881979654096	 0.00
					CHANNELS 3 Zrotation Xrotation Yrotation
					JOINT LeftForeArm
					{
						OFFSET	 0.00	2.59758046908119	 0.00
						CHANNELS 3 Zrotation Xrotation Yrotation
						JOINT LeftHand
						{
							OFFSET	 0.00	2.45542024364365	 0.00
							CHANNELS 3 Zrotation Xrotation Yrotation
							JOINT LeftHandThumb 
							{
								OFFSET	 0.00	0.00	 0.00
								CHANNELS 3 Zrotation Xrotation Yrotation
								End Site
								{
									OFFSET	 0.00	0.00	1.00000003353624
								}
							}
							JOINT L_Wrist_End 
							{
								OFFSET	 0.00	0.99999967115358	 0.00
								CHANNELS 3 Zrotation Xrotation Yrotation
								End Site 
								{
									OFFSET	 0.00	 0.00	 0.00
								}
							}
						}
					}
				}
			}
			JOINT RightShoulder
			{
				OFFSET	 0.00	 2.48462964506057	 0.00
				CHANNELS 3 Zrotation Xrotation Yrotation
				JOINT RightUpArm
				{
					OFFSET	 0.00	 1.24881979654096	 0.00
					CHANNELS 3 Zrotation Xrotation Yrotation
					JOINT RightForeArm
					{
						OFFSET	 0.00	2.59758046908119	 0.00
						CHANNELS 3 Zrotation Xrotation Yrotation
						JOINT RightHand
						{
							OFFSET	 0.00	2.45542024364365	 0.00
							CHANNELS 3 Zrotation Xrotation Yrotation
							JOINT RightHandThumb 
							{
								OFFSET	 0.00	0.00	 0.00
								CHANNELS 3 Zrotation Xrotation Yrotation
								End Site
								{
									OFFSET	 0.00	0.00	1.00000003353624
								}
							}
							JOINT R_Wrist_End 
							{
								OFFSET	 0.00	0.99999967115358	 0.00
								CHANNELS 3 Zrotation Xrotation Yrotation
								End Site 
								{
									OFFSET	 0.00	 0.00	 0.00
								}
							}
						}
					}
				}
			}
		}
	}
	JOINT LeftUpLeg
	{
		OFFSET	 1.2719394002717	 0.00	 0.00
		CHANNELS 3 Zrotation Xrotation Yrotation
		JOINT LeftLowLeg
		{
			OFFSET	 0.00	-4.3429100912261	 0.00
			CHANNELS 3 Zrotation Xrotation Yrotation
			JOINT LeftFoot
			{
				OFFSET	 0.00	-4.48767017425826	 0.00
				CHANNELS 3 Zrotation Xrotation Yrotation
				JOINT LeftToeBase
                {
                    OFFSET	 0.00	0.00	 1.51507020887566
                    CHANNELS 3 Zrotation Xrotation Yrotation
                    End Site 
                    {
                        OFFSET	 0.00	0.00	 0.75000010571191
                    }
                }
			}
		}
	}
	JOINT RightUpLeg
	{
		OFFSET	 -1.2719393604653	 0.00	 0.00
		CHANNELS 3 Zrotation Xrotation Yrotation
		JOINT RightLowLeg
		{
			OFFSET	 0.00	-4.3429100912261	 0.00
			CHANNELS 3 Zrotation Xrotation Yrotation
			JOINT RightFoot
			{
				OFFSET	 0.00	-4.48767017425826	 0.00
				CHANNELS 3 Zrotation Xrotation Yrotation
				JOINT RightToeBase
                {
                    OFFSET	 0.00	0.00	 1.51507020887566
                    CHANNELS 3 Zrotation Xrotation Yrotation
                    End Site 
                    {
                        OFFSET	 0.00	0.00	 0.749999965609858
                    }
                }   
			}
		}
	}
}
MOTION 
Frames:	15 
Frame Time: 0.02 
 2.0187199401855467 1.4781700134277345 9.801539916992187 -153.885 81.612 -202.79 2.21745 -9.37693 -1.10596 0.883147 4.34166 -1.36816 -2.46276 33.8788 1.44684 13.2248 -49.8845 7.07692 -89.99413 -14.2824 -5.49451 -8.1071 7.31769 -27.1267 0.0 20.0461 0.0 31.5371 -9.26386 21.3363 0.0 0.0 0.0 0.0 0.0 0.0 96.79454 -12.5087 -0.418874 8.6257 0.256848 34.9565 0.0 21.7361 0.0 -20.0249 -4.32213 -25.4757 0.0 0.0 0.0 0.0 0.0 0.0 4.50119 -5.4136 2.33107 0.0 7.02586 0.0 8.5822 7.27071 2.30336 0.0 -36.2976 0.0 3.1018 -3.98564 7.45742 0.0 6.53013 0.0 9.12799 9.38011 -7.14244 0.0 -27.6913 0.0 
  2.0192100524902346 1.4773899841308593 9.8014599609375 -153.879 81.6129 -202.795 2.22389 -9.37517 -1.1009 0.870279 4.3258 -1.36468 -2.44808 33.8759 1.44411 13.2145 -49.8721 7.11589 -89.858765 -14.3016 -5.48603 -8.40493 7.33342 -27.3227 0.0 20.2693 0.0 31.9284 -9.81164 21.7471 0.0 0.0 0.0 0.0 0.0 0.0 96.78939 -12.4848 -0.416172 8.66084 0.216518 35.0423 0.0 21.7155 0.0 -20.0286 -4.28714 -25.5296 0.0 0.0 0.0 0.0 0.0 0.0 4.50008 -5.40961 2.33656 0.0 7.03045 0.0 8.58263 7.26314 2.29362 0.0 -36.2825 0.0 3.09948 -3.98654 7.4413 0.0 6.545 0.0 9.13111 9.37253 -7.12205 0.0 -27.698 0.0 
  2.019720001220703 1.476929931640625 9.801439819335938 -153.837 81.6199 -202.828 2.23682 -9.36108 -1.09917 0.855554 4.31452 -1.36643 -2.43891 33.8615 1.44269 13.2097 -49.8701 7.14161 -89.840004 -14.2975 -5.49398 -8.47224 7.31247 -27.3911 0.0 20.2974 0.0 32.0181 -9.8443 21.8898 0.0 0.0 0.0 0.0 0.0 0.0 96.79516 -12.4845 -0.413732 8.67616 0.199375 35.0905 0.0 21.7253 0.0 -20.0582 -4.27214 -25.5162 0.0 0.0 0.0 0.0 0.0 0.0 4.49977 -5.40523 2.33386 0.0 7.04307 0.0 8.57564 7.24716 2.28895 0.0 -36.2666 0.0 3.09941 -3.97955 7.43123 0.0 6.5556 0.0 9.12901 9.36802 -7.121 0.0 -27.6997 0.0 
  2.020070037841797 1.4760400390625 9.801420288085938 -153.816 81.6302 -202.832 2.28636 -9.33135 -1.06791 0.755723 4.27174 -1.34845 -2.41019 33.9122 1.43426 13.3301 -49.957 7.22042 -89.805565 -14.2508 -5.46987 -8.46968 7.29888 -27.401 0.0 20.2775 0.0 31.9888 -9.77428 21.768 0.0 0.0 0.0 0.0 0.0 0.0 96.85337 -12.5453 -0.402317 8.66646 0.191038 35.0567 0.0 21.7255 0.0 -20.0651 -4.25773 -25.5373 0.0 0.0 0.0 0.0 0.0 0.0 4.49612 -5.39579 2.32499 0.0 7.04803 0.0 8.59271 7.24948 2.28113 0.0 -36.2986 0.0 3.09614 -3.96404 7.42345 0.0 6.56015 0.0 9.12253 9.35583 -7.13521 0.0 -27.6902 0.0 
  2.021219940185547 1.4752000427246095 9.801290283203125 -153.768 81.6479 -202.876 2.30503 -9.29551 -1.06142 0.73482 4.26369 -1.34708 -2.35492 33.8602 1.38045 13.2966 -49.9569 7.28597 -89.82434 -14.2612 -5.47398 -8.49112 7.27559 -27.3037 0.0 20.2742 0.0 32.0137 -9.81633 21.7623 0.0 0.0 0.0 0.0 0.0 0.0 96.87422 -12.5568 -0.389631 8.63797 0.171401 34.987 0.0 21.7212 0.0 -20.0254 -4.24682 -25.5551 0.0 0.0 0.0 0.0 0.0 0.0 4.48957 -5.37683 2.34245 0.0 7.05644 0.0 8.6075 7.23876 2.26935 0.0 -36.311 0.0 3.09186 -3.95146 7.441 0.0 6.58842 0.0 9.12508 9.33651 -7.14983 0.0 -27.705101 0.0 
  2.0217999267578124 1.4748899841308594 9.801170043945312 -153.781 81.6507 -202.858 2.3077 -9.28942 -1.06375 0.732085 4.27097 -1.35027 -2.33034 33.8268 1.34694 13.287 -49.96 7.28952 -89.84658 -14.26 -5.46017 -8.46199 7.24715 -27.2079 0.0 20.2291 0.0 31.9336 -9.80033 21.7414 0.0 0.0 0.0 0.0 0.0 0.0 96.86939 -12.5612 -0.399898 8.65368 0.179 35.0378 0.0 21.7204 0.0 -20.0546 -4.25052 -25.5646 0.0 0.0 0.0 0.0 0.0 0.0 4.48455 -5.37748 2.34102 0.0 7.06474 0.0 8.61057 7.23259 2.26063 0.0 -36.2924 0.0 3.08535 -3.95113 7.42936 0.0 6.59666 0.0 9.12501 9.32164 -7.14302 0.0 -27.6885 0.0 
  2.0224000549316408 1.4742799377441407 9.801079711914063 -153.744 81.6522 -202.888 2.277 -9.30016 -1.10409 0.805505 4.3266 -1.38302 -2.39209 33.7532 1.41529 13.2747 -49.9695 7.2464 -89.91033 -14.3123 -5.47873 -8.46538 7.20443 -27.167 0.0 20.2385 0.0 31.9006 -9.79404 21.7873 0.0 0.0 0.0 0.0 0.0 0.0 96.8256 -12.4995 -0.396666 8.69138 0.180549 35.1532 0.0 21.7307 0.0 -20.09 -4.2137 -25.5712 0.0 0.0 0.0 0.0 0.0 0.0 4.48502 -5.3741 2.33307 0.0 7.07043 0.0 8.5995 7.21988 2.25883 0.0 -36.301903 0.0 3.08549 -3.9485 7.42471 0.0 6.60856 0.0 9.13464 9.3167095 -7.13576 0.0 -27.6961 0.0 
  2.0228500366210938 1.473679962158203 9.800919799804687 -153.746 81.6499 -202.888 2.27959 -9.30021 -1.10309 0.806315 4.33683 -1.38277 -2.39457 33.7145 1.40104 13.3235 -49.9811 7.17637 -89.91617 -14.2899 -5.47113 -8.49565 7.14535 -27.2029 0.0 20.2617 0.0 31.9317 -9.78576 21.7949 0.0 0.0 0.0 0.0 0.0 0.0 96.81956 -12.4933 -0.373927 8.71739 0.164736 35.1419 0.0 21.7543 0.0 -20.0908 -4.23095 -25.589 0.0 0.0 0.0 0.0 0.0 0.0 4.484 -5.37036 2.33706 0.0 7.06678 0.0 8.60547 7.21468 2.25769 0.0 -36.3037 0.0 3.08555 -3.94852 7.43382 0.0 6.61243 0.0 9.13134 9.307631 -7.14561 0.0 -27.7016 0.0 
  2.023260040283203 1.473209991455078 9.80094970703125 -153.758 81.6468 -202.874 2.28141 -9.29953 -1.10316 0.800733 4.34621 -1.38349 -2.32888 33.7247 1.33395 13.301 -49.9991 7.2636 -89.92561 -14.2903 -5.46451 -8.49801 7.12498 -27.2056 0.0 20.2455 0.0 31.969 -9.76652 21.7015 0.0 0.0 0.0 0.0 0.0 0.0 96.85224 -12.4858 -0.375737 8.68539 0.154969 35.1038 0.0 21.7485 0.0 -20.0563 -4.22759 -25.5669 0.0 0.0 0.0 0.0 0.0 0.0 4.48103 -5.36784 2.33354 0.0 7.06132 0.0 8.61121 7.21667 2.26024 0.0 -36.297897 0.0 3.08262 -3.94647 7.43653 0.0 6.6084 0.0 9.12778 9.30591 -7.15322 0.0 -27.6958 0.0 
  2.023789978027344 1.472530059814453 9.800800170898437 -153.703 81.6656 -202.936 2.29092 -9.28451 -1.09145 0.788775 4.36424 -1.37443 -2.29768 33.7137 1.29521 13.3126 -49.9948 7.26307 -89.92419 -14.2729 -5.46935 -8.51247 7.09781 -27.1945 0.0 20.2608 0.0 31.9887 -9.75037 21.7179 0.0 0.0 0.0 0.0 0.0 0.0 96.86883 -12.4833 -0.358319 8.67362 0.131147 35.0353 0.0 21.7444 0.0 -20.0406 -4.20456 -25.5797 0.0 0.0 0.0 0.0 0.0 0.0 4.48006 -5.33823 2.32261 0.0 7.05871 0.0 8.60235 7.20397 2.259 0.0 -36.2818 0.0 3.08023 -3.91807 7.45024 0.0 6.60063 0.0 9.13299 9.301149 -7.15522 0.0 -27.7011 0.0 
  2.0242100524902344 1.47125 9.800770263671875 -153.792 81.6133 -202.85 2.29549 -9.32938 -1.08824 0.797159 4.37069 -1.3721 -2.27258 33.7339 1.2762 13.3372 -50.0026 7.29657 -89.9394 -14.2843 -5.45699 -8.56855 7.06535 -27.3202 0.0 20.3329 0.0 32.0179 -9.70392 21.8011 0.0 0.0 0.0 0.0 0.0 0.0 96.8809 -12.4456 -0.397109 8.70772 0.108205 35.1945 0.0 21.7307 0.0 -20.1352 -4.1496 -25.5317 0.0 0.0 0.0 0.0 0.0 0.0 4.48329 -5.3826 2.29661 0.0 7.057 0.0 8.60298 7.20045 2.30503 0.0 -36.300697 0.0 3.0849 -3.94319 7.42834 0.0 6.5589 0.0 9.11258 9.32336 -7.14909 0.0 -27.7034 0.0 
  2.0246099853515624 1.470659942626953 9.80073974609375 -153.841 81.5959 -202.812 2.29987 -9.34846 -1.08017 0.801174 4.37712 -1.36493 -2.27172 33.754 1.27773 13.336 -50.0052 7.3095 -89.954 -14.2767 -5.46532 -8.58554 7.03135 -27.3092 0.0 20.3796 0.0 32.0307 -9.68505 21.7729 0.0 0.0 0.0 0.0 0.0 0.0 96.88582 -12.4439 -0.38913 8.7244 0.0976709 35.1804 0.0 21.7549 0.0 -20.2275 -4.16058 -25.5194 0.0 0.0 0.0 0.0 0.0 0.0 4.4851 -5.39197 2.30477 0.0 7.05365 0.0 8.60636 7.19398 2.29194 0.0 -36.273598 0.0 3.08365 -3.95427 7.44603 0.0 6.54775 0.0 9.11551 9.32829 -7.15564 0.0 -27.7038 0.0 
  2.0251699829101564 1.4696200561523438 9.800670166015625 -153.892 81.5864 -202.782 2.30886 -9.3608 -1.06733 0.794069 4.3916 -1.35438 -2.26815 33.7925 1.28905 13.3564 -50.0188 7.35371 -89.98475 -14.267 -5.45698 -8.56682 6.99075 -27.2093 0.0 20.3981 0.0 32.0357 -9.68106 21.7762 0.0 0.0 0.0 0.0 0.0 0.0 96.91114 -12.4424 -0.367964 8.75714 0.102637 35.2277 0.0 21.782 0.0 -20.3269 -4.10432 -25.4768 0.0 0.0 0.0 0.0 0.0 0.0 4.47991 -5.3826 2.32417 0.0 7.03493 0.0 8.60945 7.19494 2.30068 0.0 -36.29 0.0 3.078 -3.95674 7.43373 0.0 6.53889 0.0 9.11455 9.329189 -7.13056 0.0 -27.6999 0.0 
  2.0251800537109377 1.4685499572753906 9.800590209960937 -153.9 81.574 -202.784 2.31229 -9.38174 -1.06369 0.804314 4.4222 -1.35165 -2.30362 33.8056 1.33675 13.3712 -50.0349 7.35491 -90.02148 -14.2526 -5.4563 -8.54138 6.94095 -27.1403 0.0 20.41 0.0 31.9678 -9.64228 21.7022 0.0 0.0 0.0 0.0 0.0 0.0 96.93362 -12.4511 -0.341944 8.77869 0.133304 35.2495 0.0 21.7851 0.0 -20.3875 -4.05205 -25.3826 0.0 0.0 0.0 0.0 0.0 0.0 4.48508 -5.38262 2.3443 0.0 7.02968 0.0 8.59799 7.18254 2.28801 0.0 -36.2863 0.0 3.08303 -3.96252 7.44807 0.0 6.53898 0.0 9.11241 9.32887 -7.13737 0.0 -27.699501 0.0 
  2.02552001953125 1.467830047607422 9.80051025390625 -153.947 81.5632 -202.754 2.31083 -9.40027 -1.05088 0.822371 4.45317 -1.33822 -2.31773 33.8167 1.34685 13.3531 -50.0501 7.3556 -90.058235 -14.2333 -5.42161 -8.56116 6.90853 -27.2583 0.0 20.4645 0.0 31.9788 -9.60982 21.7331 0.0 0.0 0.0 0.0 0.0 0.0 96.96166 -12.4309 -0.36642 8.7892 0.0995469 35.2435 0.0 21.8172 0.0 -20.4192 -4.05273 -25.211 0.0 0.0 0.0 0.0 0.0 0.0 4.4822 -5.38476 2.33673 0.0 7.02732 0.0 8.60206 7.1801 2.3124 0.0 -36.275497 0.0 3.07973 -3.97016 7.46034 0.0 6.53526 0.0 9.1062 9.32877 -7.13195 0.0 -27.693401 0.0 
